<svg xmlns="http://www.w3.org/2000/svg" width="41" height="44" viewBox="0 0 41 44">
  <defs>
    <style>
      .cls-1 {
        fill: #2e61c8;
        fill-rule: evenodd;
      }
    </style>
  </defs>
  <path id="形状_4256" data-name="形状 4256" class="cls-1" d="M3129.15,6088.93h-1.89v4.49a2.505,2.505,0,1,1-5.01,0v-4.49h-15.48v4.49a2.51,2.51,0,1,1-5.02,0v-4.49h-1.88a5.87,5.87,0,0,0-5.86,5.87v29.33a5.87,5.87,0,0,0,5.86,5.87h29.28a5.87,5.87,0,0,0,5.86-5.87V6094.8A5.87,5.87,0,0,0,3129.15,6088.93Zm-23.42,27.87h-2.93a1.465,1.465,0,1,1,0-2.93h2.93A1.465,1.465,0,0,1,3105.73,6116.8Zm5.36-13.45-5.61,5.63a1.579,1.579,0,0,1-.62.37,1.428,1.428,0,0,1-1.56-.3l-3.01-3.02a1.424,1.424,0,0,1,2.01-2.01l1.82,1.83,4.73-4.75A1.587,1.587,0,1,1,3111.09,6103.35Zm4.88,13.45h-2.92a1.465,1.465,0,1,1,0-2.93h2.92A1.465,1.465,0,1,1,3115.97,6116.8Zm0-8.8h-2.92a1.465,1.465,0,1,1,0-2.93h2.92A1.465,1.465,0,1,1,3115.97,6108Zm10.25,8.8h-2.93a1.465,1.465,0,0,1,0-2.93h2.93A1.465,1.465,0,1,1,3126.22,6116.8Zm0-8.8h-2.93a1.465,1.465,0,0,1,0-2.93h2.93A1.465,1.465,0,1,1,3126.22,6108Zm-21.54-13.2h-0.84a1.061,1.061,0,0,1-1.06-1.06v-6.68a1.061,1.061,0,0,1,1.06-1.06h0.84a1.054,1.054,0,0,1,1.06,1.06v6.68A1.054,1.054,0,0,1,3104.68,6094.8Zm20.5,0h-0.84a1.054,1.054,0,0,1-1.06-1.06v-6.68a1.054,1.054,0,0,1,1.06-1.06h0.84a1.061,1.061,0,0,1,1.06,1.06v6.68A1.061,1.061,0,0,1,3125.18,6094.8Z" transform="translate(-3094 -6086)"/>
</svg>
