<svg xmlns="http://www.w3.org/2000/svg" width="56" height="43" viewBox="0 0 56 43">
  <defs>
    <style>
      .cls-1 {
        fill: #ccc;
        fill-rule: evenodd;
      }
    </style>
  </defs>
  <path id="形状_4635" data-name="形状 4635" class="cls-1" d="M478.137,1943.7a6.068,6.068,0,0,0-4.418-1.82h-8.837v-0.1a4.611,4.611,0,0,0-1.436-3.38,4.946,4.946,0,0,0-3.46-1.4h-15.97a4.978,4.978,0,0,0-3.514,1.4,4.7,4.7,0,0,0-1.437,3.38v0.1h-8.783a6.291,6.291,0,0,0-6.282,6.13v25.86a5.81,5.81,0,0,0,1.863,4.31,6.413,6.413,0,0,0,4.419,1.82h43.437a6.292,6.292,0,0,0,6.282-6.13v-25.86A5.8,5.8,0,0,0,478.137,1943.7Zm-0.9,30.17h-0.053a3.285,3.285,0,0,1-1.011,2.39,3.479,3.479,0,0,1-2.449.99H430.282a3.475,3.475,0,0,1-2.448-.99,3.278,3.278,0,0,1-1.012-2.39v-25.86a3.278,3.278,0,0,1,1.012-2.39,3.475,3.475,0,0,1,2.448-.99h10.273a1.411,1.411,0,0,0,1.437-1.4v-1.51a2,2,0,0,1,.586-1.45,2.135,2.135,0,0,1,1.491-.57h15.917a2.134,2.134,0,0,1,1.49.57,2,2,0,0,1,.585,1.45v1.51a1.412,1.412,0,0,0,1.437,1.4h10.274a3.479,3.479,0,0,1,2.449.99,3.281,3.281,0,0,1,1.011,2.39v25.86h0ZM452,1948.16a13.308,13.308,0,0,0-9.262,3.74,12.579,12.579,0,0,0,0,18.08,13.34,13.34,0,0,0,18.525,0,12.537,12.537,0,0,0,3.832-9.04,12.663,12.663,0,0,0-3.832-9.04,13.311,13.311,0,0,0-9.263-3.74h0Zm7.24,19.89a10.46,10.46,0,0,1-14.479,0,9.792,9.792,0,0,1-2.981-7.06,10.022,10.022,0,0,1,2.981-7.06,10.3,10.3,0,0,1,7.239-2.91,10.52,10.52,0,0,1,7.24,2.91,9.809,9.809,0,0,1,2.981,7.06,9.586,9.586,0,0,1-2.981,7.06h0Zm9.1-17.39a2.546,2.546,0,1,0,0-.01v0.01h0Z" transform="translate(-424 -1937)"/>
</svg>
