<svg xmlns="http://www.w3.org/2000/svg" width="40" height="40" viewBox="0 0 40 40">
  <defs>
    <style>
      .cls-1 {
        fill: #2e61c8;
        fill-rule: evenodd;
      }
    </style>
  </defs>
  <path id="sel_拷贝" data-name="sel 拷贝" class="cls-1" d="M2136,4160a20,20,0,1,0,20,20A20.02,20.02,0,0,0,2136,4160Zm12.42,14.43-14.93,14.93a0.917,0.917,0,0,1-1.3,0l-1.96-1.96h0l-6.47-6.48a0.917,0.917,0,0,1,0-1.3l1.95-1.96a0.936,0.936,0,0,1,1.3,0l5.83,5.83,12.32-12.32a0.936,0.936,0,0,1,1.3,0l1.96,1.96A0.917,0.917,0,0,1,2148.42,4174.43Z" transform="translate(-2116 -4160)"/>
</svg>
