<svg xmlns="http://www.w3.org/2000/svg" width="33.38" height="37.38" viewBox="0 0 33.38 37.38">
  <defs>
    <style>
      .cls-1 {
        fill: #c9c9c9;
        fill-rule: evenodd;
      }
    </style>
  </defs>
  <path id="形状_2449_拷贝_2" data-name="形状 2449 拷贝 2" class="cls-1" d="M8720.3,2730.99h-30.71a1.352,1.352,0,0,0,0,2.7h30.71a1.352,1.352,0,0,0,0-2.7h0Zm-29.95-1.21a1.193,1.193,0,0,0,.37-0.06l10-3.21a1.156,1.156,0,0,0,.53-0.34l19.73-20.75a2.61,2.61,0,0,0,.02-3.56c-0.01-.01-0.01-0.02-0.02-0.03l-4.59-4.79a2.345,2.345,0,0,0-3.41,0l-19.7,20.74a1.342,1.342,0,0,0-.27.44l-3.85,9.7a1.383,1.383,0,0,0,.24,1.42A1.193,1.193,0,0,0,8690.35,2729.78Zm24.36-30.72,4.31,4.58-3.04,3.21-4.35-4.58Zm-19.44,20.44,14.57-15.32,4.35,4.57-14.5,15.26-7.12,2.3Z" transform="translate(-8688.31 -2696.31)"/>
</svg>
