<svg xmlns="http://www.w3.org/2000/svg" width="21" height="26" viewBox="0 0 21 26">
  <defs>
    <style>
      .cls-1 {
        fill: #c7c7cc;
        fill-rule: evenodd;
      }
    </style>
  </defs>
  <path id="形状_5448_拷贝_2" data-name="形状 5448 拷贝 2" class="cls-1" d="M5505.5,4036a10.367,10.367,0,0,0-10.5,10.23c0,5.64,8.59,15.77,10.5,15.77s10.51-10.13,10.51-15.77A10.376,10.376,0,0,0,5505.5,4036Zm3.16,5.86a0.93,0.93,0,1,1-.95.93A0.948,0.948,0,0,1,5508.66,4041.86Zm-3.16,9.95a5.8,5.8,0,0,1-5.33-3.53,5.388,5.388,0,0,1-.4-2.05,5.661,5.661,0,0,1,5.73-5.58,6.076,6.076,0,0,1,1.61.22l-0.53,1.79a3.912,3.912,0,0,0-1.08-.15,3.811,3.811,0,0,0-2.7,1.09,3.638,3.638,0,0,0-1.12,2.63,3.56,3.56,0,0,0,.27,1.37,3.778,3.778,0,0,0,2.48,2.2,3.79,3.79,0,0,0,1.07.15,3.854,3.854,0,0,0,2.7-1.09,3.672,3.672,0,0,0,1.12-2.63,3.524,3.524,0,0,0-.27-1.37l1.78-.69a5.439,5.439,0,0,1,.4,2.06A5.654,5.654,0,0,1,5505.5,4051.81Z" transform="translate(-5495 -4036)"/>
</svg>
