<svg xmlns="http://www.w3.org/2000/svg" width="24" height="24" viewBox="0 0 24 24">
  <defs>
    <style>
      .cls-1 {
        fill: #2e61c8;
        fill-rule: evenodd;
      }
    </style>
  </defs>
  <path id="x" class="cls-1" d="M7794,2319a12,12,0,1,0,12,12A12,12,0,0,0,7794,2319Zm6.35,16.85a0.883,0.883,0,0,1,0,1.21,0.9,0.9,0,0,1-1.22,0l-4.85-4.85-4.84,4.85a0.9,0.9,0,0,1-1.22,0,0.883,0.883,0,0,1,0-1.21l4.85-4.85-4.85-4.85a0.883,0.883,0,0,1,0-1.21,0.9,0.9,0,0,1,1.22,0l4.84,4.85,4.85-4.85a0.9,0.9,0,0,1,1.22,0,0.883,0.883,0,0,1,0,1.21l-4.85,4.85Z" transform="translate(-7782 -2319)"/>
</svg>
