<svg id="组_91" data-name="组 91" xmlns="http://www.w3.org/2000/svg" width="62" height="62" viewBox="0 0 62 62">
  <defs>
    <style>
      .cls-1 {
        fill: none;
        stroke-linecap: round;
        stroke-width: 2px;
        opacity: 0.1;
      }

      .cls-1, .cls-2 {
        stroke: #fff;
      }

      .cls-2 {
        fill: #fff;
        stroke-width: 0.8px;
        fill-rule: evenodd;
      }
    </style>
  </defs>
  <circle id="椭圆_4410_拷贝" data-name="椭圆 4410 拷贝" class="cls-1" cx="31" cy="31" r="30"/>
  <path id="形状_4444" data-name="形状 4444" class="cls-2" d="M1062.68,3174.53c-0.01-.04-0.03-0.07-0.04-0.11l-0.01-.02v-0.01h0l-0.01-.01v-0.01a0.02,0.02,0,0,1-.01-0.02l-0.01-.01-0.01-.02-0.01-.02a0.01,0.01,0,0,0-.01-0.01h0v-0.01a0.673,0.673,0,0,0-.14-0.15l-0.01-.01a0.02,0.02,0,0,0-.02-0.01l-0.01-.01v-0.01h-0.01l-0.01-.01h-0.01l-0.02-.02a0.031,0.031,0,0,1-.02-0.01h-0.01c0-.01-0.02-0.01-0.02-0.01l-0.02-.01c0-.01,0-0.01-0.01-0.01l-0.03-.01-0.01-.01a0.035,0.035,0,0,1-.02-0.01h-0.02l-0.03-.01h-0.02l-0.01-.01h-0.05c-0.01,0-.02-0.01-0.03-0.01h-0.25a3.171,3.171,0,0,1-3.17-3.17,3.243,3.243,0,0,1,.51-1.74h0.01v-0.01h0c0.01-.02.02-0.03,0.03-0.05l0.01-.02a0.076,0.076,0,0,0,.02-0.05h0.01v-0.01c0.01-.02.01-0.04,0.02-0.06l0.01-.01a0.817,0.817,0,0,0,.01-0.27v-0.01a0.09,0.09,0,0,0-.01-0.05v-0.02a0.393,0.393,0,0,0-.02-0.06v-0.01a0.076,0.076,0,0,0-.02-0.05v-0.02a0.219,0.219,0,0,1-.03-0.05l-0.01-.01a0.219,0.219,0,0,0-.03-0.05v-0.01h0a0.151,0.151,0,0,0-.04-0.04v-0.01l-0.01-.01a0.053,0.053,0,0,0-.02-0.03l-0.03-.02-0.02-.02a13.079,13.079,0,0,0-5.23-3.06l-0.01-.01a1.1,1.1,0,0,0-.18-0.02h-0.03a0.637,0.637,0,0,0-.24.04h-0.02l-0.02.01-0.02.01a0.01,0.01,0,0,0-.01.01,0.049,0.049,0,0,0-.03.01h-0.01a0.951,0.951,0,0,0-.2.15,0.761,0.761,0,0,0-.12.19,3.169,3.169,0,0,1-5.73.01h-0.01v-0.01l-0.01-.01a0.913,0.913,0,0,0-.08-0.13,0.655,0.655,0,0,0-.26-0.21l-0.02-.01h0l-0.01-.01h-0.01l-0.02-.01h-0.01l-0.01-.01-0.02-.01h-0.01a0.761,0.761,0,0,0-.21-0.03h-0.03a0.566,0.566,0,0,0-.18.03h0a13.047,13.047,0,0,0-5.22,3.04l-0.01.01-0.05.05h0v0.01a0.176,0.176,0,0,0-.04.05h-0.01v0.01c-0.02.02-.02,0.03-0.04,0.05v0.01a0.219,0.219,0,0,1-.03.05v0.01a0.142,0.142,0,0,0-.02.06l-0.01.01a0.127,0.127,0,0,0-.01.06l-0.01.01c0,0.02-.01.04-0.01,0.06v0.23a0.257,0.257,0,0,1,.02.05v0.02a0.207,0.207,0,0,0,.02.06v0.01c0.01,0.02.02,0.03,0.03,0.05v0.01l0.03,0.06,0.01,0.01v0.01a3.13,3.13,0,0,1,.53,1.75,3.18,3.18,0,0,1-3.17,3.18,1.087,1.087,0,0,1-.18-0.01h-0.08a0.1,0.1,0,0,0-.03.01h-0.06l-0.02.01h-0.04l-0.01.01h-0.02l-0.02.01h-0.02l-0.01.01-0.02.01h-0.02l-0.01.01h-0.01a0.053,0.053,0,0,1-.03.02h0a0.035,0.035,0,0,0-.02.01l-0.01.01c-0.01,0-.01.01-0.02,0.01l-0.01.01a0.035,0.035,0,0,1-.02.01,0.02,0.02,0,0,1-.02.01l-0.01.01-0.01.02-0.02.01h0l-0.01.01h-0.01l-0.01.02-0.01.01a0.031,0.031,0,0,0-.01.02l-0.01.01h-0.01v0.01l-0.01.01-0.02.03-0.01.01-0.02.02-0.01.02h0l-0.01.02-0.01.02v0.02a0.01,0.01,0,0,0-.01.01,0.035,0.035,0,0,0-.01.02l-0.01.01h0a0.037,0.037,0,0,1-.01.03v0.03l-0.01.02v0.01l-0.01.01v0.02a13.461,13.461,0,0,0-.34,2.97,12.865,12.865,0,0,0,.34,2.96v0.03l0.01,0.01v0.02h0a0.037,0.037,0,0,1,.01.03l0.01,0.01v0.02l0.01,0.01v0.01h0l0.01,0.02a0.01,0.01,0,0,1,.01.01h0v0.02l0.02,0.03,0.01,0.01,0.01,0.02v0.01l0.02,0.02a0.01,0.01,0,0,0,.01.01h0l0.01,0.02,0.01,0.01v0.01l0.02,0.02,0.01,0.01h0.01v0.01h0l0.01,0.01h0.01c0,0.01.01,0.01,0.01,0.02l0.01,0.01a0.035,0.035,0,0,0,.02.01l0.02,0.02,0.02,0.01,0.01,0.01,0.02,0.02h0.01l0.02,0.01v0.01l0.02,0.01,0.02,0.01h0.01l0.02,0.01,0.03,0.01v0.01l0.04,0.01,0.03,0.01h0.02c0.01,0,.01.01,0.02,0.01h0.02a0.02,0.02,0,0,1,.02.01h0.34a3.18,3.18,0,0,1,3.17,3.18,3.107,3.107,0,0,1-.53,1.75v0.01h-0.01V3186h0l-0.01.01a0.169,0.169,0,0,1-.02.05l-0.01.01a0.257,0.257,0,0,0-.02.05h0v0.02a0.076,0.076,0,0,0-.02.05l-0.01.01a0.354,0.354,0,0,1-.01.06c0,0.03-.01.05-0.01,0.07v0.08a0.127,0.127,0,0,0,.01.06v0.01a0.127,0.127,0,0,0,.01.06v0.02c0,0.01.01,0.03,0.01,0.04l0.01,0.03a0.048,0.048,0,0,1,.01.04h0.01v0.02l0.03,0.05,0.01,0.01,0.03,0.06h0c0.02,0.02.03,0.04,0.05,0.06s0.03,0.03.04,0.05h0.01v0.01h0.01a12.983,12.983,0,0,0,5.19,3.03l0.02,0.01a0.628,0.628,0,0,0,.19.03h0.03a1,1,0,0,0,.16-0.02l0.11-.03,0.01-.01,0.02-.01h0.02a0.755,0.755,0,0,0,.26-0.21,0.913,0.913,0,0,0,.08-0.13l0.01-.03a3.173,3.173,0,0,1,5.74.02,0.492,0.492,0,0,0,.1.15,0.778,0.778,0,0,0,.24.2h0.01l0.02,0.01h0.01l0.02,0.01h0.01a0.01,0.01,0,0,1,.01.01h0.03l0.01,0.01h0.02l0.01,0.01c0.03,0,.06.01,0.09,0.01h0.09a0.761,0.761,0,0,0,.21-0.03,12.983,12.983,0,0,0,5.26-3.08h0.01v-0.01l0.04-.04,0.01-.01c0.01-.01.02-0.03,0.04-0.05h0v-0.01a0.219,0.219,0,0,0,.03-0.05l0.01-.01c0.01-.02.01-0.04,0.02-0.06l0.01-.01c0.01-.02.01-0.04,0.02-0.06v-0.01a0.257,0.257,0,0,0,.02-0.05h0v-0.01a0.09,0.09,0,0,0,.01-0.05v-0.23c-0.01-.02-0.01-0.04-0.02-0.06v-0.01c-0.01-.02-0.01-0.04-0.02-0.06h0l-0.01-.01a0.106,0.106,0,0,0-.02-0.05l-0.01-.01a0.169,0.169,0,0,0-.03-0.06h0c0-.01,0-0.01-0.01-0.01a3.182,3.182,0,0,1,2.67-4.91,0.528,0.528,0,0,1,.13.01H1062l0.07-.01,0.01-.01h0.05v-0.01l0.03-.01h0.02c0.05-.02.1-0.05,0.15-0.07l0.01-.01,0.02-.02h0l0.01-.01a0.02,0.02,0,0,0,.02-0.01h0.01v-0.01h0.01l0.01-.01,0.02-.02,0.01-.01,0.02-.02a0.435,0.435,0,0,0,.06-0.07h0.01v-0.01h0c0-.01.01-0.01,0.01-0.02l0.01-.01v-0.01l0.02-.02v-0.02h0.01v-0.02a0.038,0.038,0,0,0,.02-0.02l0.02-.1h0.01a0.257,0.257,0,0,0,.02-0.05,13.482,13.482,0,0,0,.34-2.98,12.317,12.317,0,0,0-.32-2.96h0Zm-1.31,4.96-0.02.11-0.1.01a4.645,4.645,0,0,0-3.71,6.5l0.05,0.1-0.09.07a11.457,11.457,0,0,1-3.5,2.06l-0.11.04-0.06-.1a4.648,4.648,0,0,0-7.64,0l-0.07.1-0.1-.04a11.55,11.55,0,0,1-3.47-2.03l-0.08-.07,0.04-.1a4.506,4.506,0,0,0,.42-1.91,4.663,4.663,0,0,0-4.16-4.63l-0.11-.01-0.02-.11a11.616,11.616,0,0,1,0-3.96l0.02-.11,0.11-.01a4.641,4.641,0,0,0,4.16-4.62,4.55,4.55,0,0,0-.42-1.92l-0.04-.1,0.08-.07a11.55,11.55,0,0,1,3.47-2.03l0.11-.03,0.06,0.09a4.648,4.648,0,0,0,7.64,0l0.06-.09,0.11,0.03a11.835,11.835,0,0,1,3.51,2.06l0.08,0.07-0.04.1a4.55,4.55,0,0,0-.4,1.89,4.631,4.631,0,0,0,4.1,4.61l0.11,0.02,0.02,0.1a12.017,12.017,0,0,1,.16,1.98,11.1,11.1,0,0,1-.17,2h0Zm-11.35-4.96a3.08,3.08,0,1,0,3.08,3.08,3.079,3.079,0,0,0-3.08-3.08m0,7.63a4.545,4.545,0,1,1,4.55-4.55,4.552,4.552,0,0,1-4.55,4.55" transform="translate(-1019 -3146)"/>
</svg>
