<svg xmlns="http://www.w3.org/2000/svg" width="38" height="37" viewBox="0 0 38 37">
  <defs>
    <style>
      .cls-1 {
        fill: #c9c9c9;
        stroke: #c9c9c9;
        stroke-width: 0.4px;
        fill-rule: evenodd;
      }
    </style>
  </defs>
  <path id="形状_3640" data-name="形状 3640" class="cls-1" d="M6169.55,1694.77a2.288,2.288,0,0,1-2.29,2.28h-16.52a2.288,2.288,0,0,1-2.29-2.28v-24.28h21.1v24.28h0Zm-16.52-28.38a0.463,0.463,0,0,1,.47-0.47h11.02a0.466,0.466,0,0,1,.48.47v1.37h-11.97v-1.37Zm23.4,1.37h-8.7v-1.37a3.212,3.212,0,0,0-3.21-3.2H6153.5a3.209,3.209,0,0,0-3.2,3.2v1.37h-8.73a1.38,1.38,0,0,0,0,2.76h4.12v24.25a5.047,5.047,0,0,0,5.05,5.04h16.52a5.047,5.047,0,0,0,5.05-5.04v-24.28h4.12a1.376,1.376,0,0,0,1.38-1.38A1.357,1.357,0,0,0,6176.43,1667.76ZM6159,1692.92a1.383,1.383,0,0,0,1.38-1.38v-14.66a1.38,1.38,0,0,0-2.76,0v14.66a1.383,1.383,0,0,0,1.38,1.38m-6.44,0a1.376,1.376,0,0,0,1.38-1.38v-14.66a1.38,1.38,0,0,0-2.76,0v14.66a1.423,1.423,0,0,0,1.38,1.38m12.88,0a1.383,1.383,0,0,0,1.38-1.38v-14.66a1.38,1.38,0,1,0-2.76,0v14.66a1.376,1.376,0,0,0,1.38,1.38" transform="translate(-6140 -1663)"/>
</svg>
